<?xml version="1.0" encoding="UTF-8" ?>
<svg version="1.1" width="32" height="32" xmlns="http://www.w3.org/2000/svg" shape-rendering="crispEdges">
<rect x="3" y="0" width="2" height="1" fill="#76428A" />
<rect x="5" y="0" width="22" height="1" fill="#99E550" />
<rect x="27" y="0" width="2" height="1" fill="#76428A" />
<rect x="2" y="1" width="2" height="1" fill="#76428A" />
<rect x="4" y="1" width="1" height="1" fill="#99E550" />
<rect x="5" y="1" width="22" height="6" fill="#76428A" />
<rect x="27" y="1" width="1" height="1" fill="#99E550" />
<rect x="28" y="1" width="2" height="1" fill="#76428A" />
<rect x="1" y="2" width="2" height="1" fill="#76428A" />
<rect x="3" y="2" width="1" height="1" fill="#99E550" />
<rect x="4" y="2" width="1" height="22" fill="#76428A" />
<rect x="27" y="2" width="1" height="22" fill="#76428A" />
<rect x="28" y="2" width="1" height="1" fill="#99E550" />
<rect x="29" y="2" width="2" height="1" fill="#76428A" />
<rect x="0" y="3" width="2" height="1" fill="#76428A" />
<rect x="2" y="3" width="1" height="1" fill="#99E550" />
<rect x="3" y="3" width="1" height="22" fill="#76428A" />
<rect x="28" y="3" width="1" height="22" fill="#76428A" />
<rect x="29" y="3" width="1" height="1" fill="#99E550" />
<rect x="30" y="3" width="2" height="1" fill="#76428A" />
<rect x="0" y="4" width="1" height="1" fill="#76428A" />
<rect x="1" y="4" width="1" height="1" fill="#99E550" />
<rect x="2" y="4" width="1" height="17" fill="#76428A" />
<rect x="29" y="4" width="1" height="17" fill="#76428A" />
<rect x="30" y="4" width="1" height="1" fill="#99E550" />
<rect x="31" y="4" width="1" height="1" fill="#76428A" />
<rect x="0" y="5" width="1" height="23" fill="#99E550" />
<rect x="1" y="5" width="1" height="23" fill="#76428A" />
<rect x="30" y="5" width="1" height="23" fill="#76428A" />
<rect x="31" y="5" width="1" height="23" fill="#99E550" />
<rect x="5" y="7" width="10" height="5" fill="#76428A" />
<rect x="15" y="7" width="2" height="5" fill="#2A8C6E" />
<rect x="17" y="7" width="10" height="5" fill="#76428A" />
<rect x="5" y="12" width="9" height="2" fill="#76428A" />
<rect x="14" y="12" width="1" height="12" fill="#2CC596" />
<rect x="15" y="12" width="2" height="13" fill="#323C39" />
<rect x="17" y="12" width="1" height="12" fill="#2CC596" />
<rect x="18" y="12" width="9" height="2" fill="#76428A" />
<rect x="5" y="14" width="8" height="1" fill="#76428A" />
<rect x="13" y="14" width="1" height="6" fill="#2CC596" />
<rect x="18" y="14" width="1" height="6" fill="#2CC596" />
<rect x="19" y="14" width="8" height="1" fill="#76428A" />
<rect x="5" y="15" width="4" height="6" fill="#76428A" />
<rect x="9" y="15" width="1" height="1" fill="#323C39" />
<rect x="10" y="15" width="3" height="1" fill="#76428A" />
<rect x="19" y="15" width="3" height="1" fill="#76428A" />
<rect x="22" y="15" width="1" height="1" fill="#323C39" />
<rect x="23" y="15" width="4" height="6" fill="#76428A" />
<rect x="9" y="16" width="1" height="5" fill="#2A8C6E" />
<rect x="10" y="16" width="2" height="2" fill="#76428A" />
<rect x="12" y="16" width="1" height="2" fill="#2A8C6E" />
<rect x="19" y="16" width="1" height="2" fill="#2A8C6E" />
<rect x="20" y="16" width="2" height="2" fill="#76428A" />
<rect x="22" y="16" width="1" height="5" fill="#2A8C6E" />
<rect x="10" y="18" width="1" height="2" fill="#76428A" />
<rect x="11" y="18" width="1" height="2" fill="#2A8C6E" />
<rect x="12" y="18" width="1" height="4" fill="#323C39" />
<rect x="19" y="18" width="1" height="4" fill="#323C39" />
<rect x="20" y="18" width="1" height="2" fill="#2A8C6E" />
<rect x="21" y="18" width="1" height="2" fill="#76428A" />
<rect x="10" y="20" width="1" height="2" fill="#2A8C6E" />
<rect x="11" y="20" width="1" height="2" fill="#323C39" />
<rect x="13" y="20" width="1" height="2" fill="#323C39" />
<rect x="18" y="20" width="1" height="2" fill="#323C39" />
<rect x="20" y="20" width="1" height="2" fill="#323C39" />
<rect x="21" y="20" width="1" height="2" fill="#2A8C6E" />
<rect x="2" y="21" width="1" height="1" fill="#323C39" />
<rect x="5" y="21" width="3" height="1" fill="#76428A" />
<rect x="8" y="21" width="1" height="8" fill="#2CC596" />
<rect x="9" y="21" width="1" height="5" fill="#323C39" />
<rect x="22" y="21" width="1" height="5" fill="#323C39" />
<rect x="23" y="21" width="1" height="8" fill="#2CC596" />
<rect x="24" y="21" width="3" height="1" fill="#76428A" />
<rect x="29" y="21" width="1" height="1" fill="#323C39" />
<rect x="2" y="22" width="1" height="6" fill="#2A8C6E" />
<rect x="5" y="22" width="2" height="1" fill="#76428A" />
<rect x="7" y="22" width="1" height="8" fill="#2CC596" />
<rect x="10" y="22" width="1" height="4" fill="#323C39" />
<rect x="11" y="22" width="2" height="1" fill="#2A8C6E" />
<rect x="13" y="22" width="1" height="9" fill="#2CC596" />
<rect x="18" y="22" width="1" height="9" fill="#2CC596" />
<rect x="19" y="22" width="2" height="1" fill="#2A8C6E" />
<rect x="21" y="22" width="1" height="4" fill="#323C39" />
<rect x="24" y="22" width="1" height="8" fill="#2CC596" />
<rect x="25" y="22" width="2" height="1" fill="#76428A" />
<rect x="29" y="22" width="1" height="6" fill="#2A8C6E" />
<rect x="5" y="23" width="2" height="1" fill="#2A8C6E" />
<rect x="11" y="23" width="2" height="3" fill="#323C39" />
<rect x="19" y="23" width="2" height="3" fill="#323C39" />
<rect x="25" y="23" width="2" height="1" fill="#2A8C6E" />
<rect x="4" y="24" width="1" height="1" fill="#2A8C6E" />
<rect x="5" y="24" width="2" height="3" fill="#323C39" />
<rect x="14" y="24" width="1" height="1" fill="#2A8C6E" />
<rect x="17" y="24" width="1" height="1" fill="#2A8C6E" />
<rect x="25" y="24" width="2" height="3" fill="#323C39" />
<rect x="27" y="24" width="1" height="1" fill="#2A8C6E" />
<rect x="3" y="25" width="1" height="1" fill="#2A8C6E" />
<rect x="4" y="25" width="1" height="2" fill="#323C39" />
<rect x="14" y="25" width="1" height="1" fill="#323C39" />
<rect x="15" y="25" width="2" height="2" fill="#2A8C6E" />
<rect x="17" y="25" width="1" height="1" fill="#323C39" />
<rect x="27" y="25" width="1" height="2" fill="#323C39" />
<rect x="28" y="25" width="1" height="1" fill="#2A8C6E" />
<rect x="3" y="26" width="1" height="1" fill="#323C39" />
<rect x="9" y="26" width="4" height="1" fill="#2A8C6E" />
<rect x="14" y="26" width="1" height="1" fill="#2A8C6E" />
<rect x="17" y="26" width="1" height="1" fill="#2A8C6E" />
<rect x="19" y="26" width="4" height="1" fill="#2A8C6E" />
<rect x="28" y="26" width="1" height="1" fill="#323C39" />
<rect x="3" y="27" width="4" height="1" fill="#2A8C6E" />
<rect x="9" y="27" width="4" height="1" fill="#323C39" />
<rect x="14" y="27" width="4" height="2" fill="#323C39" />
<rect x="19" y="27" width="4" height="1" fill="#323C39" />
<rect x="25" y="27" width="4" height="1" fill="#2A8C6E" />
<rect x="0" y="28" width="1" height="1" fill="#76428A" />
<rect x="1" y="28" width="1" height="1" fill="#99E550" />
<rect x="2" y="28" width="5" height="1" fill="#76428A" />
<rect x="9" y="28" width="2" height="1" fill="#2A8C6E" />
<rect x="11" y="28" width="2" height="1" fill="#323C39" />
<rect x="19" y="28" width="2" height="1" fill="#323C39" />
<rect x="21" y="28" width="2" height="1" fill="#2A8C6E" />
<rect x="25" y="28" width="5" height="1" fill="#76428A" />
<rect x="30" y="28" width="1" height="1" fill="#99E550" />
<rect x="31" y="28" width="1" height="1" fill="#76428A" />
<rect x="1" y="29" width="1" height="1" fill="#76428A" />
<rect x="2" y="29" width="1" height="1" fill="#99E550" />
<rect x="3" y="29" width="4" height="1" fill="#76428A" />
<rect x="8" y="29" width="3" height="2" fill="#76428A" />
<rect x="11" y="29" width="2" height="1" fill="#2A8C6E" />
<rect x="14" y="29" width="4" height="1" fill="#2A8C6E" />
<rect x="19" y="29" width="2" height="1" fill="#2A8C6E" />
<rect x="21" y="29" width="3" height="2" fill="#76428A" />
<rect x="25" y="29" width="4" height="1" fill="#76428A" />
<rect x="29" y="29" width="1" height="1" fill="#99E550" />
<rect x="30" y="29" width="1" height="1" fill="#76428A" />
<rect x="2" y="30" width="1" height="1" fill="#76428A" />
<rect x="3" y="30" width="1" height="1" fill="#99E550" />
<rect x="4" y="30" width="4" height="1" fill="#76428A" />
<rect x="11" y="30" width="2" height="1" fill="#76428A" />
<rect x="14" y="30" width="4" height="1" fill="#76428A" />
<rect x="19" y="30" width="2" height="1" fill="#76428A" />
<rect x="24" y="30" width="4" height="1" fill="#76428A" />
<rect x="28" y="30" width="1" height="1" fill="#99E550" />
<rect x="29" y="30" width="1" height="1" fill="#76428A" />
<rect x="3" y="31" width="1" height="1" fill="#76428A" />
<rect x="4" y="31" width="24" height="1" fill="#99E550" />
<rect x="28" y="31" width="1" height="1" fill="#76428A" />
</svg>